<?xml version="1.0" encoding="UTF-8"?>
<svg width="64px" height="64px" viewBox="0 0 64 64" version="1.1" xmlns="http://www.w3.org/2000/svg" xmlns:xlink="http://www.w3.org/1999/xlink">
    <!-- Generator: Sketch 52.5 (67469) - http://www.bohemiancoding.com/sketch -->
    <title>icon_index_lens</title>
    <desc>Created with Sketch.</desc>
    <defs>
        <polygon id="path-1" points="0 0 64 0 64 64 0 64"></polygon>
    </defs>
    <g id="icon_index_lens" stroke="none" stroke-width="1" fill="none" fill-rule="evenodd">
        <g id="Group-16">
            <mask id="mask-2" fill="white">
                <use xlink:href="#path-1"></use>
            </mask>
            <g id="Clip-6"></g>
            <path d="M60.9520482,18.2860983 L53.9740124,18.2860983 C51.8845259,14.94464 49.05536,12.1154741 45.7139017,10.0265251 L45.7139017,3.04741426 L60.9520482,3.04741426 L60.9520482,18.2860983 Z M60.9520482,30.4762929 L57.8567913,30.4762929 C57.6686461,27.231595 56.8800491,24.1492394 55.6054999,21.3335125 L60.9520482,21.3335125 L60.9520482,30.4762929 Z M60.9520482,42.6664875 L55.6054999,42.6664875 C56.8800491,39.850223 57.6686461,36.7689426 57.8567913,33.5242447 L60.9520482,33.5242447 L60.9520482,42.6664875 Z M60.9520482,60.9520482 L45.7139017,60.9520482 L45.7139017,53.97455 C49.05536,51.8845259 51.8845259,49.05536 53.97455,45.7139017 L60.9520482,45.7139017 L60.9520482,60.9520482 Z M42.6664875,8.39503767 C39.850223,7.12048851 36.768405,6.332429 33.5231696,6.14374627 L33.5231696,3.04741426 L42.6664875,3.04741426 L42.6664875,8.39503767 Z M42.6664875,18.2860983 L33.5231696,18.2860983 L33.5231696,9.19976146 C36.8076468,9.41693475 39.9039788,10.3291701 42.6664875,11.7934771 L42.6664875,18.2860983 Z M33.5231696,30.4762929 L42.6664875,30.4762929 L42.6664875,21.3335125 L33.5231696,21.3335125 L33.5231696,30.4762929 Z M33.5231696,42.6664875 L42.6664875,42.6664875 L42.6664875,33.5237071 L33.5231696,33.5237071 L33.5231696,42.6664875 Z M42.6664875,52.207598 C39.9039788,53.6713675 36.8076468,54.5830653 33.5231696,54.8007761 L33.5231696,45.7139017 L42.6664875,45.7139017 L42.6664875,52.207598 Z M42.6664875,60.9520482 L33.5231696,60.9520482 L33.5231696,57.8562537 C36.768405,57.6681086 39.850223,56.8800491 42.6664875,55.6054999 L42.6664875,60.9520482 Z M30.4762929,6.14374627 C27.2310574,6.33296656 24.1492394,7.12102606 21.332975,8.39611279 L21.332975,3.04741426 L30.4762929,3.04741426 L30.4762929,6.14374627 Z M30.4762929,18.2860983 L21.332975,18.2860983 L21.332975,11.7940146 C24.0954837,10.3297076 27.1918157,9.4174723 30.4762929,9.20029902 L30.4762929,18.2860983 Z M21.3335125,30.4762929 L30.4762929,30.4762929 L30.4762929,21.3335125 L21.3335125,21.3335125 L21.3335125,30.4762929 Z M21.3335125,42.6664875 L30.4762929,42.6664875 L30.4762929,33.5237071 L21.3335125,33.5237071 L21.3335125,42.6664875 Z M30.4762929,54.8007761 C27.1918157,54.5825277 24.0954837,53.6702924 21.332975,52.2065229 L21.332975,45.7139017 L30.4762929,45.7139017 L30.4762929,54.8007761 Z M30.4762929,60.9520482 L21.332975,60.9520482 L21.332975,55.6044248 C24.1492394,56.8795115 27.2310574,57.6681086 30.4762929,57.8562537 L30.4762929,60.9520482 Z M18.2855607,10.0276002 C14.9451775,12.1165492 12.1165492,14.9451775 10.0276002,18.2860983 L3.04741426,18.2860983 L3.04741426,3.04741426 L18.2855607,3.04741426 L18.2855607,10.0276002 Z M18.2855607,18.2860983 L13.7276095,18.2860983 C15.0252736,16.5610758 16.5610758,15.0263487 18.2855607,13.728147 L18.2855607,18.2860983 Z M18.2855607,30.4762929 L9.20029902,30.4762929 C9.41800986,27.1918157 10.3302452,24.0960212 11.7945522,21.3335125 L18.2855607,21.3335125 L18.2855607,30.4762929 Z M18.2855607,42.6664875 L11.7940146,42.6664875 C10.3297076,39.9039788 9.41800986,36.8081843 9.20029902,33.5242447 L18.2855607,33.5242447 L18.2855607,42.6664875 Z M18.2855607,50.271853 C16.5610758,48.9741888 15.0252736,47.4383867 13.7276095,45.7139017 L18.2855607,45.7139017 L18.2855607,50.271853 Z M18.2855607,60.9520482 L3.04741426,60.9520482 L3.04741426,45.7139017 L10.0270627,45.7139017 C12.1165492,49.0548225 14.9451775,51.8834508 18.2855607,53.9729373 L18.2855607,60.9520482 Z M3.04741426,33.5242447 L6.14428383,33.5242447 C6.33296656,36.7689426 7.12102606,39.850223 8.39557523,42.6664875 L3.04741426,42.6664875 L3.04741426,33.5242447 Z M3.04741426,21.3335125 L8.39557523,21.3335125 C7.12156362,24.1492394 6.33296656,27.231595 6.14482139,30.4762929 L3.04741426,30.4762929 L3.04741426,21.3335125 Z M45.7139017,45.7139017 L50.2740032,45.7139017 C48.9758015,47.4394618 47.4394618,48.9758015 45.7139017,50.2740032 L45.7139017,45.7139017 Z M45.7139017,33.5242447 L54.8013137,33.5242447 C54.5836028,36.8081843 53.6719051,39.9039788 52.207598,42.6664875 L45.7139017,42.6664875 L45.7139017,33.5242447 Z M45.7139017,21.3335125 L52.2070605,21.3335125 C53.6713675,24.0960212 54.5836028,27.1918157 54.8013137,30.4762929 L45.7139017,30.4762929 L45.7139017,21.3335125 Z M45.7139017,13.7265343 C47.4389242,15.0247361 48.9752639,16.5605382 50.2734657,18.2860983 L45.7139017,18.2860983 L45.7139017,13.7265343 Z M0,64 L64,64 L64,0 L0,0 L0,64 Z" id="Fill-5" fill-opacity="0.797922328" fill="#3E3A39" mask="url(#mask-2)"></path>
        </g>
    </g>
</svg>