<?xml version="1.0" encoding="UTF-8"?>
<svg width="64px" height="64px" viewBox="0 0 64 64" version="1.1" xmlns="http://www.w3.org/2000/svg" xmlns:xlink="http://www.w3.org/1999/xlink">
    <!-- Generator: Sketch 52.5 (67469) - http://www.bohemiancoding.com/sketch -->
    <title>icon_index_service</title>
    <desc>Created with Sketch.</desc>
    <g id="icon_index_service" stroke="none" stroke-width="1" fill="none" fill-rule="evenodd" fill-opacity="0.801460598">
        <g id="Group-18" fill="#3E3A39">
            <polygon id="Fill-1" points="9.05836131 57.4117647 26.3529412 40.1171848 23.8821989 37.6470588 6.58823529 54.9416387"></polygon>
            <path d="M43.8554101,10.6664696 L45.0408033,11.8520271 L30.8202234,26.0745778 L28.449437,23.7034628 L0,52.1574338 L0.00354731134,56.8831073 L7.11827142,63.9994087 L11.859253,64 L40.3004129,35.5554899 L37.9296265,33.1843749 L52.1496152,18.9618242 L53.3350085,20.1467903 L64,9.48091208 L64,9.47972948 L54.5209929,0 L43.8554101,10.6664696 Z M33.1898273,28.4445101 L47.4109985,14.2225507 L49.7806025,11.8520271 L48.5958005,10.6664696 L54.5209929,4.74045604 L59.260792,9.48091208 L53.3350085,15.4063343 L52.1496152,14.2213681 L49.7800113,16.5918918 L35.5594313,30.8144425 L33.1898273,28.4445101 Z M26.079833,30.8144425 L28.449437,28.4433275 L28.4500282,28.4445101 L35.5588401,35.5548986 L35.5600225,35.5554899 L33.1898273,37.9260135 L26.079833,30.8144425 Z M3.36048628,55.5006467 L3.36048628,53.5363465 L23.7090466,33.1849662 L30.8202234,40.2959459 L10.4710719,60.6384567 L8.51177356,60.6431871 L3.36048628,55.5006467 Z" id="Fill-2"></path>
        </g>
    </g>
</svg>