<?xml version="1.0" encoding="UTF-8"?>
<svg width="72px" height="64px" viewBox="0 0 72 64" version="1.1" xmlns="http://www.w3.org/2000/svg" xmlns:xlink="http://www.w3.org/1999/xlink">
    <!-- Generator: Sketch 52.5 (67469) - http://www.bohemiancoding.com/sketch -->
    <title>icon_index_tokyodesign</title>
    <desc>Created with Sketch.</desc>
    <g id="icon_index_tokyodesign" stroke="none" stroke-width="1" fill="none" fill-rule="evenodd">
        <g id="Group">
            <path d="M46.9431308,0 L46.9431308,16.7659953 L70.4164707,16.7659953 L70.4158792,0 L46.9431308,0 Z M50.2962116,13.413506 L67.0622069,13.413506 L67.0622069,3.35367225 L50.2962116,3.35367225 L50.2962116,13.413506 Z M46.9543689,20.1356375 L46.9543689,32.8541585 L42.9074861,36.9016328 L16.7748675,36.9016328 L16.7748675,50.3151388 L33.5414543,50.3151388 L33.5414543,57.0218919 L54.3555154,57.0218919 L60.3678749,51.0095324 L60.3678749,20.1356375 L46.9543689,20.1356375 Z M20.1285397,40.255305 L44.2956816,40.255305 L50.3080411,34.2429455 L50.3080411,23.4893097 L57.0142027,23.4893097 L57.0142027,49.6213368 L52.9667284,53.6682196 L36.8951266,53.6682196 L36.8951266,46.9614666 L20.1285397,46.9614666 L20.1285397,40.255305 Z M0,63.7114921 L13.4140975,63.7114921 L13.4140975,43.5918245 L0,43.5918245 L0,63.7114921 Z M3.35367225,60.3572283 L10.0604253,60.3572283 L10.0604253,46.9449052 L3.35367225,46.9449052 L3.35367225,60.3572283 Z M16.7500255,63.7114921 L30.164123,63.7114921 L30.164123,53.6510668 L16.7500255,53.6510668 L16.7500255,63.7114921 Z M20.1036977,60.3578198 L26.8104507,60.3578198 L26.8104507,57.004739 L20.1036977,57.004739 L20.1036977,60.3578198 Z" id="Fill-1" fill-opacity="0.799111187" fill="#3E3A39"></path>
            <circle id="Oval" fill="#EA545D" cx="51.3015873" cy="46.2222222" r="3.55555556"></circle>
        </g>
    </g>
</svg>