<?xml version="1.0" encoding="UTF-8"?>
<svg width="64px" height="64px" viewBox="0 0 64 64" version="1.1" xmlns="http://www.w3.org/2000/svg" xmlns:xlink="http://www.w3.org/1999/xlink">
    <!-- Generator: Sketch 52.5 (67469) - http://www.bohemiancoding.com/sketch -->
    <title>icon_index_0yen</title>
    <desc>Created with Sketch.</desc>
    <defs>
        <polygon id="path-1" points="0 0.170074074 63.8297481 0.170074074 63.8297481 64 0 64"></polygon>
    </defs>
    <g id="icon_index_0yen" stroke="none" stroke-width="1" fill="none" fill-rule="evenodd">
        <g id="Group-10">
            <polygon id="Fill-1" fill="#EA545D" points="16.5673759 32.660312 19.9734043 32.660312 15 25 20.0939716 25 23.5602837 30.3032929 27.0265957 25 32 25 27.0265957 32.660312 30.5531915 32.660312 30.5531915 34.7227036 25.8510638 34.7227036 25.8510638 35.9890121 30.5531915 35.9890121 30.5531915 38.0225303 25.8510638 38.0225303 25.8510638 42 21.1489362 42 21.1489362 38.0225303 16.5673759 38.0225303 16.5673759 35.9890121 21.1489362 35.9890121 21.1489362 34.7227036 16.5673759 34.7227036"></polygon>
            <g id="Group-9">
                <path d="M43.6089481,25.2681481 C43.6089481,23.8168889 42.423763,22.6903704 41.0305778,22.6903704 C39.6385778,22.6903704 38.4533926,23.8168889 38.4533926,25.2681481 L38.4533926,34.3940741 C38.4533926,35.8465185 39.6385778,36.9718519 41.0305778,36.9718519 C42.423763,36.9718519 43.6089481,35.8465185 43.6089481,34.3940741 L43.6089481,25.2681481 Z M48.2311704,25.1502222 L48.2311704,34.5131852 C48.2311704,39.2539259 44.8533926,41.5946667 41.0305778,41.5946667 C37.2089481,41.5946667 33.8311704,39.2539259 33.8311704,34.5131852 L33.8311704,25.1502222 C33.8311704,20.4094815 37.2089481,18.0687407 41.0305778,18.0687407 C44.8533926,18.0687407 48.2311704,20.4094815 48.2311704,25.1502222 Z" id="Fill-2" fill="#EA545D"></path>
                <g id="Group-6">
                    <mask id="mask-2" fill="white">
                        <use xlink:href="#path-1"></use>
                    </mask>
                    <g id="Clip-5"></g>
                    <path d="M31.9150815,60.6402963 C16.1693037,60.6402963 3.35922963,47.8308148 3.35922963,32.0844444 C3.35922963,16.3392593 16.1693037,3.52977778 31.9150815,3.52977778 C47.6602667,3.52977778 60.4709333,16.3392593 60.4709333,32.0844444 C60.4709333,47.8308148 47.6602667,60.6402963 31.9150815,60.6402963 M31.9150815,0.169777778 C14.2884148,0.169777778 -0.000177777778,14.4583704 -0.000177777778,32.0844444 C-0.000177777778,49.7111111 14.2884148,64.0002963 31.9150815,64.0002963 C49.5411556,64.0002963 63.8297481,49.7111111 63.8297481,32.0844444 C63.8297481,14.4583704 49.5411556,0.169777778 31.9150815,0.169777778" id="Fill-4" fill-opacity="0.800384964" fill="#3E3A39" mask="url(#mask-2)"></path>
                </g>
                <path d="M11.6969481,40.4539259 L7.93991111,40.4539259 C11.1179852,47.3297778 16.6682074,52.88 23.5440593,56.0592593 L23.5440593,52.3016296 C18.5129481,49.6231111 14.3754667,45.4844444 11.6969481,40.4539259" id="Fill-7" fill-opacity="0.800384964" fill="#3E3A39"></path>
            </g>
        </g>
    </g>
</svg>