<?xml version="1.0" encoding="UTF-8"?>
<svg width="64px" height="59px" viewBox="0 0 64 59" version="1.1" xmlns="http://www.w3.org/2000/svg" xmlns:xlink="http://www.w3.org/1999/xlink">
    <!-- Generator: Sketch 52.5 (67469) - http://www.bohemiancoding.com/sketch -->
    <title>icon_index_delivery</title>
    <desc>Created with Sketch.</desc>
    <defs>
        <polygon id="path-1" points="0 0 64 0 64 58.4347826 0 58.4347826"></polygon>
    </defs>
    <g id="icon_index_delivery" stroke="none" stroke-width="1" fill="none" fill-rule="evenodd">
        <g id="Group-3">
            <mask id="mask-2" fill="white">
                <use xlink:href="#path-1"></use>
            </mask>
            <g id="Clip-2"></g>
            <path d="M61.3331373,42.5539032 L56.0008234,48.1188634 L56.0008234,55.652057 L40.0005881,55.652057 L40.0005881,48.1188634 L37.3341959,45.3371197 L37.3337254,18.2556225 C38.0079693,19.6190009 38.9137051,20.8370571 39.9991766,21.8513674 L39.9991766,36.1734688 L42.6660393,36.1734688 L42.6660393,23.7381025 C43.5040214,24.1730875 44.3979944,24.507427 45.3333725,24.7288471 L45.3333725,33.3912342 L48.0002353,33.3912342 L48.0002353,25.0435484 L48.0011763,25.0435484 C48.9177339,25.0435484 49.8093544,24.9325929 50.667098,24.729338 L50.667098,33.3912342 L53.3344312,33.3912342 L53.3344312,23.7385935 C54.3046272,23.234875 55.2004823,22.5995809 56.0003529,21.8533312 L56.0003529,38.9566854 L58.6667451,38.9566854 L58.6667451,26.4349112 L61.3331373,26.4349112 L61.3331373,42.5539032 Z M48.0011763,2.78272559 C51.9666525,2.78272559 55.3468115,5.36857874 56.6981224,9.00949141 L49.3336666,16.6934078 L49.3336666,20.6279108 L57.3229625,12.2915169 C57.324374,12.3695786 57.3337842,12.4442035 57.3337842,12.5217742 C57.3337842,17.8996811 53.1556366,22.2603319 48.0011763,22.2603319 C42.8453044,22.2603319 38.6671568,17.8996811 38.6671568,12.5217742 C38.6671568,7.14288543 42.8453044,2.78272559 48.0011763,2.78272559 Z M26.6658041,45.3371197 L23.9998824,48.1188634 L23.9998824,55.652057 L7.99870609,55.652057 L7.99870609,48.1188634 L2.66686271,42.5539032 L2.66686271,26.4349112 L5.3327844,26.4349112 L5.3327844,38.9566854 L7.99964712,38.9566854 L7.99964712,21.8523493 C8.79904721,22.5990899 9.69537281,23.234875 10.6660393,23.7385935 L10.6660393,33.3912342 L13.332902,33.3912342 L13.332902,24.7288471 C14.1911161,24.9321019 15.0827366,25.0435484 15.9997647,25.0435484 L15.9997647,33.3912342 L18.667098,33.3912342 L18.667098,24.729338 C19.6024761,24.507427 20.4959786,24.1735784 21.3339607,23.7385935 L21.3339607,36.1734688 L24.0008234,36.1734688 L24.0008234,21.8518584 C25.0858244,20.838039 25.9915602,19.6204738 26.6658041,18.2580773 L26.6658041,45.3371197 Z M6.67750805,12.291026 L14.6668039,20.6279108 L14.6668039,16.6934078 L7.30234815,9.00900045 C8.65412948,5.36857874 12.0338181,2.78272559 15.9997647,2.78272559 C21.1551661,2.78272559 25.3333137,7.14288543 25.3333137,12.5217742 C25.3333137,17.8996811 21.1551661,22.2603319 15.9997647,22.2603319 C10.8448339,22.2603319 6.66668627,17.8996811 6.66668627,12.5217742 C6.66668627,12.4442035 6.675626,12.3690876 6.67750805,12.291026 Z M61.3331373,23.6521856 L58.6667451,23.6521856 L58.6667451,18.2570954 C59.5179015,16.5382664 60.0011175,14.5896712 60.0011175,12.5217742 C60.0011175,12.513428 60.000647,12.5050818 60.000647,12.4962446 L61.3340783,12.4962446 C62.0704298,12.4962446 62.6670392,11.8737153 62.6670392,11.1048818 L62.6670392,9.71351902 C62.6670392,8.94566742 62.0704298,8.32215622 61.3340783,8.32215622 L59.3071121,8.32215622 C57.6527915,3.4730065 53.2168032,0 48.0011763,0 C42.4731293,0 37.8216465,3.90062717 36.4289306,9.20685479 C35.0578583,8.63833041 33.5649233,8.32215622 32,8.32215622 C30.4355472,8.32215622 28.9426122,8.63931231 27.5720104,9.20734575 C26.1792945,3.90111813 21.5278117,0 15.9997647,0 C10.7836673,0 6.34814956,3.4730065 4.69382894,8.32215622 L2.66686271,8.32215622 C1.93051124,8.32215622 1.33343136,8.94566742 1.33343136,9.71351902 L1.33343136,11.1048818 C1.33343136,11.8737153 1.93051124,12.4962446 2.66686271,12.4962446 L4.00029407,12.4962446 C4.00029407,12.5050818 3.99982356,12.513428 3.99982356,12.5217742 C3.99982356,14.5886893 4.482569,16.5367936 5.3327844,18.2551315 L5.3327844,23.6521856 L2.31162606,23.6521856 C1.03700872,23.6521856 0,24.7342476 0,26.0642411 L0,43.7066625 L5.33184338,49.2716227 L5.33184338,58.4347826 L26.6667451,58.4347826 L26.6667451,49.2716227 L29.3331373,46.489879 L29.3331373,16.6958626 C29.3331373,15.620674 28.7445266,14.6878619 27.886783,14.2248926 C27.9592419,13.6676601 28.0001764,13.1001177 28.0001764,12.5217742 C28.0001764,12.3641781 27.9940598,12.2075638 27.9884136,12.0519315 C29.204217,11.4470765 30.563997,11.1053728 32,11.1048818 C33.4374145,11.1053728 34.795783,11.4500223 36.0125274,12.0553682 C36.0068812,12.2105096 36.0007646,12.3656509 36.0007646,12.5217742 C36.0007646,13.0996267 36.0416991,13.6671692 36.114158,14.2244016 C35.2559439,14.687371 34.6668627,15.620674 34.6668627,16.6958626 L34.6668627,46.489879 L37.3332549,49.2716227 L37.3332549,58.4347826 L58.6676861,58.4347826 L58.6676861,49.2716227 L64,43.7066625 L64,26.4349112 C64,24.9006809 62.8034877,23.6521856 61.3331373,23.6521856 Z" id="Fill-1" fill-opacity="0.805027174" fill="#3E3A39" mask="url(#mask-2)"></path>
        </g>
    </g>
</svg>